<?xml version="1.0" encoding="UTF-8"?>
<!DOCTYPE svg PUBLIC "-//W3C//DTD SVG 1.1//EN" "http://www.w3.org/Graphics/SVG/1.1/DTD/svg11.dtd">
<!-- Creator: CorelDRAW 2021 (64-Bit) -->
<svg xmlns="http://www.w3.org/2000/svg" xml:space="preserve" width="21.1667mm" height="16.9334mm" version="1.1" style="shape-rendering:geometricPrecision; text-rendering:geometricPrecision; image-rendering:optimizeQuality; fill-rule:evenodd; clip-rule:evenodd"
viewBox="0 0 1402.69 1122.16"
 xmlns:xlink="http://www.w3.org/1999/xlink"
 xmlns:xodm="http://www.corel.com/coreldraw/odm/2003">
 <defs>
  <style type="text/css">
   <![CDATA[
    .fil1 {fill:none}
    .fil0 {fill:#F7411C;fill-rule:nonzero}
   ]]>
  </style>
 </defs>
 <g id="图层_x0020_1">
  <metadata id="CorelCorpID_0Corel-Layer"/>
  <g id="_2866879155392">
   <path class="fil0" d="M701.34 434.84c-68.63,0 -124.79,56.81 -124.79,126.24 0,69.43 56.16,126.24 124.79,126.24 68.63,0 124.79,-56.81 124.79,-126.24 0,-69.43 -56.16,-126.24 -124.79,-126.24zm19.76 35.77l-5.2 119.93c0,7.36 -6.24,12.62 -13.52,12.62l-3.12 0c-7.28,0 -12.48,-5.26 -13.52,-12.62l-5.2 -119.93c0,-7.36 5.2,-12.62 11.44,-12.62l16.63 0c7.28,0 13.53,5.26 12.49,12.62zm-5.2 189.37c-4.16,4.21 -9.36,6.31 -14.56,6.31 -6.24,0 -10.4,-2.1 -14.56,-6.31 -4.16,-4.21 -6.24,-8.42 -6.24,-14.73 0,-6.32 2.08,-10.52 6.24,-14.73 4.16,-4.21 8.32,-6.31 14.56,-6.31 6.24,0 11.44,2.11 15.6,6.32 4.16,4.21 6.24,8.42 6.24,14.72 -1.04,6.32 -3.12,11.57 -7.28,14.73z" p-id="4923" data-spm-anchor-id="a313x.search_index.0.i0.6dfb3a81NuzuNI"/>
   <rect class="fil1" x="-0" y="0" width="1402.69" height="1122.16"/>
  </g>
 </g>
</svg>
